<svg width="95" height="95" viewBox="0 0 95 95" fill="none" xmlns="http://www.w3.org/2000/svg">
<mask id="path-1-inside-1_1_12" fill="white">
<path fill-rule="evenodd" clip-rule="evenodd" d="M0 0H47.5C73.7335 0 95 21.2665 95 47.5C95 73.7335 73.7335 95 47.5 95H0V47.5V0ZM58.9504 70.5073V24.4467H47.4352L36.1 31.3738V41.9893L46.1758 35.9618H46.4456V70.5073H58.9504Z"/>
</mask>
<path fill-rule="evenodd" clip-rule="evenodd" d="M0 0H47.5C73.7335 0 95 21.2665 95 47.5C95 73.7335 73.7335 95 47.5 95H0V47.5V0ZM58.9504 70.5073V24.4467H47.4352L36.1 31.3738V41.9893L46.1758 35.9618H46.4456V70.5073H58.9504Z" fill="#F8F8F8"/>
<path d="M0 0V-1H-1V0H0ZM0 95H-1V96H0V95ZM58.9504 24.4467H59.9504V23.4467H58.9504V24.4467ZM58.9504 70.5073V71.5073H59.9504V70.5073H58.9504ZM47.4352 24.4467V23.4467H47.1539L46.9138 23.5934L47.4352 24.4467ZM36.1 31.3738L35.5786 30.5205L35.1 30.8129V31.3738H36.1ZM36.1 41.9893H35.1V43.7528L36.6134 42.8475L36.1 41.9893ZM46.1758 35.9618V34.9618H45.8995L45.6624 35.1037L46.1758 35.9618ZM46.4456 35.9618H47.4456V34.9618H46.4456V35.9618ZM46.4456 70.5073H45.4456V71.5073H46.4456V70.5073ZM47.5 -1H0V1H47.5V-1ZM96 47.5C96 20.7142 74.2858 -1 47.5 -1V1C73.1812 1 94 21.8188 94 47.5H96ZM47.5 96C74.2858 96 96 74.2858 96 47.5H94C94 73.1812 73.1812 94 47.5 94V96ZM0 96H47.5V94H0V96ZM-1 47.5V95H1V47.5H-1ZM-1 0V47.5H1V0H-1ZM57.9504 24.4467V70.5073H59.9504V24.4467H57.9504ZM47.4352 25.4467H58.9504V23.4467H47.4352V25.4467ZM36.6215 32.227L47.9567 25.3L46.9138 23.5934L35.5786 30.5205L36.6215 32.227ZM37.1 41.9893V31.3738H35.1V41.9893H37.1ZM45.6624 35.1037L35.5866 41.1311L36.6134 42.8475L46.6891 36.82L45.6624 35.1037ZM46.4456 34.9618H46.1758V36.9618H46.4456V34.9618ZM47.4456 70.5073V35.9618H45.4456V70.5073H47.4456ZM58.9504 69.5073H46.4456V71.5073H58.9504V69.5073Z" fill="black" mask="url(#path-1-inside-1_1_12)"/>
</svg>
